<mxfile host="app.diagrams.net" agent="Mozilla/5.0 (Macintosh; Intel Mac OS X 10_15_7) AppleWebKit/537.36 (KHTML, like Gecko) Chrome/132.0.0.0 Safari/537.36" version="26.0.16">
  <diagram id="C5RBs43oDa-KdzZeNtuy" name="Page-1">
    <mxGraphModel dx="2110" dy="2252" grid="1" gridSize="10" guides="1" tooltips="1" connect="1" arrows="1" fold="1" page="1" pageScale="1" pageWidth="827" pageHeight="1169" math="0" shadow="0">
      <root>
        <mxCell id="WIyWlLk6GJQsqaUBKTNV-0" />
        <mxCell id="WIyWlLk6GJQsqaUBKTNV-1" parent="WIyWlLk6GJQsqaUBKTNV-0" />
        <mxCell id="b7edEHTEQrsLhUJaDIO4-33" value="" style="rounded=1;whiteSpace=wrap;html=1;" parent="WIyWlLk6GJQsqaUBKTNV-1" vertex="1">
          <mxGeometry x="1480" y="-100" width="580" height="230" as="geometry" />
        </mxCell>
        <mxCell id="b7edEHTEQrsLhUJaDIO4-38" value="" style="rounded=1;whiteSpace=wrap;html=1;" parent="WIyWlLk6GJQsqaUBKTNV-1" vertex="1">
          <mxGeometry x="1480" y="140" width="580" height="230" as="geometry" />
        </mxCell>
        <mxCell id="b7edEHTEQrsLhUJaDIO4-58" style="edgeStyle=orthogonalEdgeStyle;rounded=0;orthogonalLoop=1;jettySize=auto;html=1;entryX=0;entryY=0.5;entryDx=0;entryDy=0;exitX=1;exitY=0.5;exitDx=0;exitDy=0;" parent="WIyWlLk6GJQsqaUBKTNV-1" source="b7edEHTEQrsLhUJaDIO4-30" target="b7edEHTEQrsLhUJaDIO4-36" edge="1">
          <mxGeometry relative="1" as="geometry" />
        </mxCell>
        <mxCell id="b7edEHTEQrsLhUJaDIO4-28" value="" style="group;movable=1;resizable=1;rotatable=1;deletable=1;editable=1;locked=0;connectable=1;" parent="WIyWlLk6GJQsqaUBKTNV-1" vertex="1" connectable="0">
          <mxGeometry x="410" y="-120" width="810" height="390" as="geometry" />
        </mxCell>
        <mxCell id="b7edEHTEQrsLhUJaDIO4-10" value="" style="rounded=1;whiteSpace=wrap;html=1;movable=1;resizable=1;rotatable=1;deletable=1;editable=1;locked=0;connectable=1;" parent="b7edEHTEQrsLhUJaDIO4-28" vertex="1">
          <mxGeometry width="810" height="390" as="geometry" />
        </mxCell>
        <mxCell id="b7edEHTEQrsLhUJaDIO4-11" value="Lotto" style="text;html=1;align=center;verticalAlign=middle;whiteSpace=wrap;rounded=0;movable=1;resizable=1;rotatable=1;deletable=1;editable=1;locked=0;connectable=1;" parent="b7edEHTEQrsLhUJaDIO4-28" vertex="1">
          <mxGeometry x="720" y="20" width="60" height="30" as="geometry" />
        </mxCell>
        <mxCell id="b7edEHTEQrsLhUJaDIO4-22" style="edgeStyle=orthogonalEdgeStyle;rounded=0;orthogonalLoop=1;jettySize=auto;html=1;entryX=0;entryY=0.5;entryDx=0;entryDy=0;movable=1;resizable=1;rotatable=1;deletable=1;editable=1;locked=0;connectable=1;" parent="b7edEHTEQrsLhUJaDIO4-28" source="b7edEHTEQrsLhUJaDIO4-17" target="b7edEHTEQrsLhUJaDIO4-18" edge="1">
          <mxGeometry relative="1" as="geometry" />
        </mxCell>
        <mxCell id="b7edEHTEQrsLhUJaDIO4-17" value="" style="shape=waypoint;sketch=0;fillStyle=solid;size=6;pointerEvents=1;points=[];fillColor=none;resizable=1;rotatable=1;perimeter=centerPerimeter;snapToPoint=1;movable=1;deletable=1;editable=1;locked=0;connectable=1;" parent="b7edEHTEQrsLhUJaDIO4-28" vertex="1">
          <mxGeometry x="80" y="120" width="20" height="20" as="geometry" />
        </mxCell>
        <mxCell id="b7edEHTEQrsLhUJaDIO4-23" style="edgeStyle=orthogonalEdgeStyle;rounded=0;orthogonalLoop=1;jettySize=auto;html=1;entryX=0;entryY=0.5;entryDx=0;entryDy=0;movable=1;resizable=1;rotatable=1;deletable=1;editable=1;locked=0;connectable=1;" parent="b7edEHTEQrsLhUJaDIO4-28" source="b7edEHTEQrsLhUJaDIO4-18" target="b7edEHTEQrsLhUJaDIO4-19" edge="1">
          <mxGeometry relative="1" as="geometry" />
        </mxCell>
        <mxCell id="b7edEHTEQrsLhUJaDIO4-24" style="edgeStyle=orthogonalEdgeStyle;rounded=0;orthogonalLoop=1;jettySize=auto;html=1;entryX=0;entryY=0.5;entryDx=0;entryDy=0;movable=1;resizable=1;rotatable=1;deletable=1;editable=1;locked=0;connectable=1;" parent="b7edEHTEQrsLhUJaDIO4-28" source="b7edEHTEQrsLhUJaDIO4-18" target="b7edEHTEQrsLhUJaDIO4-20" edge="1">
          <mxGeometry relative="1" as="geometry" />
        </mxCell>
        <mxCell id="b7edEHTEQrsLhUJaDIO4-18" value="발급됨" style="rounded=1;whiteSpace=wrap;html=1;movable=1;resizable=1;rotatable=1;deletable=1;editable=1;locked=0;connectable=1;" parent="b7edEHTEQrsLhUJaDIO4-28" vertex="1">
          <mxGeometry x="190" y="100" width="120" height="60" as="geometry" />
        </mxCell>
        <mxCell id="b7edEHTEQrsLhUJaDIO4-27" style="edgeStyle=orthogonalEdgeStyle;rounded=0;orthogonalLoop=1;jettySize=auto;html=1;movable=1;resizable=1;rotatable=1;deletable=1;editable=1;locked=0;connectable=1;" parent="b7edEHTEQrsLhUJaDIO4-28" source="b7edEHTEQrsLhUJaDIO4-19" target="b7edEHTEQrsLhUJaDIO4-21" edge="1">
          <mxGeometry relative="1" as="geometry" />
        </mxCell>
        <mxCell id="b7edEHTEQrsLhUJaDIO4-19" value="당첨됨" style="rounded=1;whiteSpace=wrap;html=1;movable=1;resizable=1;rotatable=1;deletable=1;editable=1;locked=0;connectable=1;" parent="b7edEHTEQrsLhUJaDIO4-28" vertex="1">
          <mxGeometry x="400" y="100" width="120" height="60" as="geometry" />
        </mxCell>
        <mxCell id="b7edEHTEQrsLhUJaDIO4-20" value="미당첨됨" style="rounded=1;whiteSpace=wrap;html=1;movable=1;resizable=1;rotatable=1;deletable=1;editable=1;locked=0;connectable=1;" parent="b7edEHTEQrsLhUJaDIO4-28" vertex="1">
          <mxGeometry x="400" y="200" width="120" height="60" as="geometry" />
        </mxCell>
        <mxCell id="b7edEHTEQrsLhUJaDIO4-21" value="" style="shape=waypoint;sketch=0;fillStyle=solid;size=6;pointerEvents=1;points=[];fillColor=none;resizable=1;rotatable=1;perimeter=centerPerimeter;snapToPoint=1;movable=1;deletable=1;editable=1;locked=0;connectable=1;" parent="b7edEHTEQrsLhUJaDIO4-28" vertex="1">
          <mxGeometry x="610" y="120" width="20" height="20" as="geometry" />
        </mxCell>
        <mxCell id="b7edEHTEQrsLhUJaDIO4-26" style="edgeStyle=orthogonalEdgeStyle;rounded=0;orthogonalLoop=1;jettySize=auto;html=1;entryX=-0.1;entryY=0.367;entryDx=0;entryDy=0;entryPerimeter=0;movable=1;resizable=1;rotatable=1;deletable=1;editable=1;locked=0;connectable=1;" parent="b7edEHTEQrsLhUJaDIO4-28" source="b7edEHTEQrsLhUJaDIO4-20" target="b7edEHTEQrsLhUJaDIO4-21" edge="1">
          <mxGeometry relative="1" as="geometry" />
        </mxCell>
        <mxCell id="b7edEHTEQrsLhUJaDIO4-29" value="Actor" style="shape=umlActor;verticalLabelPosition=bottom;verticalAlign=top;html=1;outlineConnect=0;" parent="WIyWlLk6GJQsqaUBKTNV-1" vertex="1">
          <mxGeometry x="1533" y="-50" width="30" height="60" as="geometry" />
        </mxCell>
        <mxCell id="b7edEHTEQrsLhUJaDIO4-30" value="발급한다." style="rounded=1;whiteSpace=wrap;html=1;" parent="WIyWlLk6GJQsqaUBKTNV-1" vertex="1">
          <mxGeometry x="1660" y="-60" width="120" height="60" as="geometry" />
        </mxCell>
        <mxCell id="b7edEHTEQrsLhUJaDIO4-31" value="당첨을 확인한다." style="rounded=1;whiteSpace=wrap;html=1;" parent="WIyWlLk6GJQsqaUBKTNV-1" vertex="1">
          <mxGeometry x="1660" y="30" width="120" height="60" as="geometry" />
        </mxCell>
        <mxCell id="7T0WNnkGZVwz43J-CaNy-1" style="edgeStyle=orthogonalEdgeStyle;rounded=0;orthogonalLoop=1;jettySize=auto;html=1;entryX=0;entryY=0.5;entryDx=0;entryDy=0;" parent="WIyWlLk6GJQsqaUBKTNV-1" source="b7edEHTEQrsLhUJaDIO4-32" target="7T0WNnkGZVwz43J-CaNy-0" edge="1">
          <mxGeometry relative="1" as="geometry" />
        </mxCell>
        <mxCell id="b7edEHTEQrsLhUJaDIO4-32" value="당첨 번호를 입력한다." style="rounded=1;whiteSpace=wrap;html=1;" parent="WIyWlLk6GJQsqaUBKTNV-1" vertex="1">
          <mxGeometry x="1660" y="190" width="120" height="60" as="geometry" />
        </mxCell>
        <mxCell id="b7edEHTEQrsLhUJaDIO4-34" value="&lt;font style=&quot;font-size: 48px;&quot;&gt;상태 다이어그램&lt;/font&gt;" style="text;html=1;align=center;verticalAlign=middle;whiteSpace=wrap;rounded=0;movable=1;resizable=1;rotatable=1;deletable=1;editable=1;locked=0;connectable=1;" parent="WIyWlLk6GJQsqaUBKTNV-1" vertex="1">
          <mxGeometry x="387" y="-160" width="440" height="30" as="geometry" />
        </mxCell>
        <mxCell id="b7edEHTEQrsLhUJaDIO4-35" value="&lt;span style=&quot;font-size: 48px;&quot;&gt;유즈케이스 다이어그램&lt;/span&gt;" style="text;html=1;align=center;verticalAlign=middle;whiteSpace=wrap;rounded=0;" parent="WIyWlLk6GJQsqaUBKTNV-1" vertex="1">
          <mxGeometry x="1480" y="-160" width="440" height="30" as="geometry" />
        </mxCell>
        <mxCell id="b7edEHTEQrsLhUJaDIO4-36" value="" style="rounded=1;whiteSpace=wrap;html=1;" parent="WIyWlLk6GJQsqaUBKTNV-1" vertex="1">
          <mxGeometry x="2500" y="-90" width="1000" height="270" as="geometry" />
        </mxCell>
        <mxCell id="b7edEHTEQrsLhUJaDIO4-37" value="&lt;span style=&quot;font-size: 48px;&quot;&gt;클래스 다이어그램&lt;/span&gt;" style="text;html=1;align=center;verticalAlign=middle;whiteSpace=wrap;rounded=0;" parent="WIyWlLk6GJQsqaUBKTNV-1" vertex="1">
          <mxGeometry x="2510" y="-180" width="440" height="30" as="geometry" />
        </mxCell>
        <mxCell id="b7edEHTEQrsLhUJaDIO4-39" value="Actor" style="shape=umlActor;verticalLabelPosition=bottom;verticalAlign=top;html=1;outlineConnect=0;" parent="WIyWlLk6GJQsqaUBKTNV-1" vertex="1">
          <mxGeometry x="1533" y="190" width="30" height="60" as="geometry" />
        </mxCell>
        <mxCell id="b7edEHTEQrsLhUJaDIO4-42" value="" style="rounded=1;whiteSpace=wrap;html=1;" parent="WIyWlLk6GJQsqaUBKTNV-1" vertex="1">
          <mxGeometry x="1480" y="390" width="580" height="230" as="geometry" />
        </mxCell>
        <mxCell id="b7edEHTEQrsLhUJaDIO4-93" style="edgeStyle=orthogonalEdgeStyle;rounded=0;orthogonalLoop=1;jettySize=auto;html=1;entryX=0;entryY=0.5;entryDx=0;entryDy=0;" parent="WIyWlLk6GJQsqaUBKTNV-1" source="b7edEHTEQrsLhUJaDIO4-43" target="b7edEHTEQrsLhUJaDIO4-80" edge="1">
          <mxGeometry relative="1" as="geometry" />
        </mxCell>
        <mxCell id="b7edEHTEQrsLhUJaDIO4-43" value="금액을 입력한다." style="rounded=1;whiteSpace=wrap;html=1;" parent="WIyWlLk6GJQsqaUBKTNV-1" vertex="1">
          <mxGeometry x="1660" y="440" width="120" height="60" as="geometry" />
        </mxCell>
        <mxCell id="b7edEHTEQrsLhUJaDIO4-44" value="Actor" style="shape=umlActor;verticalLabelPosition=bottom;verticalAlign=top;html=1;outlineConnect=0;" parent="WIyWlLk6GJQsqaUBKTNV-1" vertex="1">
          <mxGeometry x="1533" y="440" width="30" height="60" as="geometry" />
        </mxCell>
        <mxCell id="b7edEHTEQrsLhUJaDIO4-45" value="Lotto" style="text;html=1;align=center;verticalAlign=middle;whiteSpace=wrap;rounded=0;" parent="WIyWlLk6GJQsqaUBKTNV-1" vertex="1">
          <mxGeometry x="1980" y="-100" width="60" height="30" as="geometry" />
        </mxCell>
        <mxCell id="b7edEHTEQrsLhUJaDIO4-46" value="" style="rounded=1;whiteSpace=wrap;html=1;" parent="WIyWlLk6GJQsqaUBKTNV-1" vertex="1">
          <mxGeometry x="1480" y="630" width="580" height="230" as="geometry" />
        </mxCell>
        <mxCell id="l_rRGWIlLusPrg-PlriM-1" style="edgeStyle=orthogonalEdgeStyle;rounded=0;orthogonalLoop=1;jettySize=auto;html=1;entryX=0;entryY=0.5;entryDx=0;entryDy=0;" edge="1" parent="WIyWlLk6GJQsqaUBKTNV-1" source="b7edEHTEQrsLhUJaDIO4-47" target="l_rRGWIlLusPrg-PlriM-0">
          <mxGeometry relative="1" as="geometry" />
        </mxCell>
        <mxCell id="b7edEHTEQrsLhUJaDIO4-47" value="수익률을 확인한다." style="rounded=1;whiteSpace=wrap;html=1;" parent="WIyWlLk6GJQsqaUBKTNV-1" vertex="1">
          <mxGeometry x="1660" y="680" width="120" height="60" as="geometry" />
        </mxCell>
        <mxCell id="b7edEHTEQrsLhUJaDIO4-48" value="Actor" style="shape=umlActor;verticalLabelPosition=bottom;verticalAlign=top;html=1;outlineConnect=0;" parent="WIyWlLk6GJQsqaUBKTNV-1" vertex="1">
          <mxGeometry x="1533" y="680" width="30" height="60" as="geometry" />
        </mxCell>
        <mxCell id="b7edEHTEQrsLhUJaDIO4-136" style="edgeStyle=orthogonalEdgeStyle;rounded=0;orthogonalLoop=1;jettySize=auto;html=1;entryX=0;entryY=0.25;entryDx=0;entryDy=0;exitX=1;exitY=0.25;exitDx=0;exitDy=0;" parent="WIyWlLk6GJQsqaUBKTNV-1" source="b7edEHTEQrsLhUJaDIO4-53" target="b7edEHTEQrsLhUJaDIO4-130" edge="1">
          <mxGeometry relative="1" as="geometry" />
        </mxCell>
        <mxCell id="b7edEHTEQrsLhUJaDIO4-145" style="edgeStyle=orthogonalEdgeStyle;rounded=0;orthogonalLoop=1;jettySize=auto;html=1;entryX=0;entryY=0.25;entryDx=0;entryDy=0;exitX=1;exitY=0.25;exitDx=0;exitDy=0;" parent="WIyWlLk6GJQsqaUBKTNV-1" source="b7edEHTEQrsLhUJaDIO4-53" target="b7edEHTEQrsLhUJaDIO4-141" edge="1">
          <mxGeometry relative="1" as="geometry" />
        </mxCell>
        <mxCell id="b7edEHTEQrsLhUJaDIO4-53" value="Lotto" style="swimlane;fontStyle=1;align=center;verticalAlign=top;childLayout=stackLayout;horizontal=1;startSize=26;horizontalStack=0;resizeParent=1;resizeParentMax=0;resizeLast=0;collapsible=1;marginBottom=0;whiteSpace=wrap;html=1;" parent="WIyWlLk6GJQsqaUBKTNV-1" vertex="1">
          <mxGeometry x="3070" y="-65" width="160" height="78" as="geometry" />
        </mxCell>
        <mxCell id="b7edEHTEQrsLhUJaDIO4-54" value="+ status: LottoStatus&lt;div&gt;+ numbers: LottoNumbers&lt;/div&gt;" style="text;strokeColor=none;fillColor=none;align=left;verticalAlign=top;spacingLeft=4;spacingRight=4;overflow=hidden;rotatable=0;points=[[0,0.5],[1,0.5]];portConstraint=eastwest;whiteSpace=wrap;html=1;" parent="b7edEHTEQrsLhUJaDIO4-53" vertex="1">
          <mxGeometry y="26" width="160" height="44" as="geometry" />
        </mxCell>
        <mxCell id="b7edEHTEQrsLhUJaDIO4-55" value="" style="line;strokeWidth=1;fillColor=none;align=left;verticalAlign=middle;spacingTop=-1;spacingLeft=3;spacingRight=3;rotatable=0;labelPosition=right;points=[];portConstraint=eastwest;strokeColor=inherit;" parent="b7edEHTEQrsLhUJaDIO4-53" vertex="1">
          <mxGeometry y="70" width="160" height="8" as="geometry" />
        </mxCell>
        <mxCell id="b7edEHTEQrsLhUJaDIO4-65" style="edgeStyle=orthogonalEdgeStyle;rounded=0;orthogonalLoop=1;jettySize=auto;html=1;entryX=0;entryY=0.25;entryDx=0;entryDy=0;exitX=1;exitY=0.25;exitDx=0;exitDy=0;" parent="WIyWlLk6GJQsqaUBKTNV-1" source="b7edEHTEQrsLhUJaDIO4-62" target="b7edEHTEQrsLhUJaDIO4-53" edge="1">
          <mxGeometry relative="1" as="geometry" />
        </mxCell>
        <mxCell id="b7edEHTEQrsLhUJaDIO4-62" value="Lottos" style="swimlane;fontStyle=1;align=center;verticalAlign=top;childLayout=stackLayout;horizontal=1;startSize=26;horizontalStack=0;resizeParent=1;resizeParentMax=0;resizeLast=0;collapsible=1;marginBottom=0;whiteSpace=wrap;html=1;" parent="WIyWlLk6GJQsqaUBKTNV-1" vertex="1">
          <mxGeometry x="2840" y="-65" width="160" height="78" as="geometry" />
        </mxCell>
        <mxCell id="b7edEHTEQrsLhUJaDIO4-63" value="+ lottos: List&amp;lt;Lotto&amp;gt;" style="text;strokeColor=none;fillColor=none;align=left;verticalAlign=top;spacingLeft=4;spacingRight=4;overflow=hidden;rotatable=0;points=[[0,0.5],[1,0.5]];portConstraint=eastwest;whiteSpace=wrap;html=1;" parent="b7edEHTEQrsLhUJaDIO4-62" vertex="1">
          <mxGeometry y="26" width="160" height="44" as="geometry" />
        </mxCell>
        <mxCell id="b7edEHTEQrsLhUJaDIO4-64" value="" style="line;strokeWidth=1;fillColor=none;align=left;verticalAlign=middle;spacingTop=-1;spacingLeft=3;spacingRight=3;rotatable=0;labelPosition=right;points=[];portConstraint=eastwest;strokeColor=inherit;" parent="b7edEHTEQrsLhUJaDIO4-62" vertex="1">
          <mxGeometry y="70" width="160" height="8" as="geometry" />
        </mxCell>
        <mxCell id="b7edEHTEQrsLhUJaDIO4-79" style="edgeStyle=orthogonalEdgeStyle;rounded=0;orthogonalLoop=1;jettySize=auto;html=1;entryX=0;entryY=0.25;entryDx=0;entryDy=0;exitX=1;exitY=0.25;exitDx=0;exitDy=0;" parent="WIyWlLk6GJQsqaUBKTNV-1" source="b7edEHTEQrsLhUJaDIO4-116" target="b7edEHTEQrsLhUJaDIO4-62" edge="1">
          <mxGeometry relative="1" as="geometry">
            <mxPoint x="2720" y="-45" as="sourcePoint" />
          </mxGeometry>
        </mxCell>
        <mxCell id="b7edEHTEQrsLhUJaDIO4-80" value="" style="rounded=1;whiteSpace=wrap;html=1;" parent="WIyWlLk6GJQsqaUBKTNV-1" vertex="1">
          <mxGeometry x="2510" y="470" width="980" height="200" as="geometry" />
        </mxCell>
        <mxCell id="b7edEHTEQrsLhUJaDIO4-106" value="LottoIssuer" style="swimlane;fontStyle=1;align=center;verticalAlign=top;childLayout=stackLayout;horizontal=1;startSize=26;horizontalStack=0;resizeParent=1;resizeParentMax=0;resizeLast=0;collapsible=1;marginBottom=0;whiteSpace=wrap;html=1;" parent="WIyWlLk6GJQsqaUBKTNV-1" vertex="1">
          <mxGeometry x="2960" y="585" width="240" height="60" as="geometry" />
        </mxCell>
        <mxCell id="b7edEHTEQrsLhUJaDIO4-107" value="" style="line;strokeWidth=1;fillColor=none;align=left;verticalAlign=middle;spacingTop=-1;spacingLeft=3;spacingRight=3;rotatable=0;labelPosition=right;points=[];portConstraint=eastwest;strokeColor=inherit;" parent="b7edEHTEQrsLhUJaDIO4-106" vertex="1">
          <mxGeometry y="26" width="240" height="8" as="geometry" />
        </mxCell>
        <mxCell id="b7edEHTEQrsLhUJaDIO4-108" value="+ issueBy(Purchase): Lottos" style="text;strokeColor=none;fillColor=none;align=left;verticalAlign=top;spacingLeft=4;spacingRight=4;overflow=hidden;rotatable=0;points=[[0,0.5],[1,0.5]];portConstraint=eastwest;whiteSpace=wrap;html=1;" parent="b7edEHTEQrsLhUJaDIO4-106" vertex="1">
          <mxGeometry y="34" width="240" height="26" as="geometry" />
        </mxCell>
        <mxCell id="b7edEHTEQrsLhUJaDIO4-114" style="edgeStyle=orthogonalEdgeStyle;rounded=0;orthogonalLoop=1;jettySize=auto;html=1;entryX=0;entryY=0.5;entryDx=0;entryDy=0;" parent="WIyWlLk6GJQsqaUBKTNV-1" source="b7edEHTEQrsLhUJaDIO4-109" target="b7edEHTEQrsLhUJaDIO4-106" edge="1">
          <mxGeometry relative="1" as="geometry" />
        </mxCell>
        <mxCell id="l_rRGWIlLusPrg-PlriM-6" style="edgeStyle=orthogonalEdgeStyle;rounded=0;orthogonalLoop=1;jettySize=auto;html=1;entryX=0;entryY=0.25;entryDx=0;entryDy=0;" edge="1" parent="WIyWlLk6GJQsqaUBKTNV-1" source="b7edEHTEQrsLhUJaDIO4-109" target="Gozaz2q-YdRfWmAjp8rj-0">
          <mxGeometry relative="1" as="geometry" />
        </mxCell>
        <mxCell id="b7edEHTEQrsLhUJaDIO4-109" value="PurchaseLotto" style="swimlane;fontStyle=1;align=center;verticalAlign=top;childLayout=stackLayout;horizontal=1;startSize=26;horizontalStack=0;resizeParent=1;resizeParentMax=0;resizeLast=0;collapsible=1;marginBottom=0;whiteSpace=wrap;html=1;" parent="WIyWlLk6GJQsqaUBKTNV-1" vertex="1">
          <mxGeometry x="2540" y="540" width="190" height="60" as="geometry" />
        </mxCell>
        <mxCell id="b7edEHTEQrsLhUJaDIO4-111" value="" style="line;strokeWidth=1;fillColor=none;align=left;verticalAlign=middle;spacingTop=-1;spacingLeft=3;spacingRight=3;rotatable=0;labelPosition=right;points=[];portConstraint=eastwest;strokeColor=inherit;" parent="b7edEHTEQrsLhUJaDIO4-109" vertex="1">
          <mxGeometry y="26" width="190" height="8" as="geometry" />
        </mxCell>
        <mxCell id="b7edEHTEQrsLhUJaDIO4-112" value="+ purchase(price: Long): Lottos" style="text;strokeColor=none;fillColor=none;align=left;verticalAlign=top;spacingLeft=4;spacingRight=4;overflow=hidden;rotatable=0;points=[[0,0.5],[1,0.5]];portConstraint=eastwest;whiteSpace=wrap;html=1;" parent="b7edEHTEQrsLhUJaDIO4-109" vertex="1">
          <mxGeometry y="34" width="190" height="26" as="geometry" />
        </mxCell>
        <mxCell id="b7edEHTEQrsLhUJaDIO4-126" style="edgeStyle=orthogonalEdgeStyle;rounded=0;orthogonalLoop=1;jettySize=auto;html=1;entryX=0;entryY=0.25;entryDx=0;entryDy=0;" parent="WIyWlLk6GJQsqaUBKTNV-1" source="b7edEHTEQrsLhUJaDIO4-116" target="b7edEHTEQrsLhUJaDIO4-122" edge="1">
          <mxGeometry relative="1" as="geometry" />
        </mxCell>
        <mxCell id="b7edEHTEQrsLhUJaDIO4-116" value="LottoIssuer" style="swimlane;fontStyle=1;align=center;verticalAlign=top;childLayout=stackLayout;horizontal=1;startSize=26;horizontalStack=0;resizeParent=1;resizeParentMax=0;resizeLast=0;collapsible=1;marginBottom=0;whiteSpace=wrap;html=1;" parent="WIyWlLk6GJQsqaUBKTNV-1" vertex="1">
          <mxGeometry x="2530" y="-60" width="240" height="60" as="geometry" />
        </mxCell>
        <mxCell id="b7edEHTEQrsLhUJaDIO4-117" value="" style="line;strokeWidth=1;fillColor=none;align=left;verticalAlign=middle;spacingTop=-1;spacingLeft=3;spacingRight=3;rotatable=0;labelPosition=right;points=[];portConstraint=eastwest;strokeColor=inherit;" parent="b7edEHTEQrsLhUJaDIO4-116" vertex="1">
          <mxGeometry y="26" width="240" height="8" as="geometry" />
        </mxCell>
        <mxCell id="b7edEHTEQrsLhUJaDIO4-118" value="+ issueBy(Purchase): Lottos" style="text;strokeColor=none;fillColor=none;align=left;verticalAlign=top;spacingLeft=4;spacingRight=4;overflow=hidden;rotatable=0;points=[[0,0.5],[1,0.5]];portConstraint=eastwest;whiteSpace=wrap;html=1;" parent="b7edEHTEQrsLhUJaDIO4-116" vertex="1">
          <mxGeometry y="34" width="240" height="26" as="geometry" />
        </mxCell>
        <mxCell id="b7edEHTEQrsLhUJaDIO4-144" style="edgeStyle=orthogonalEdgeStyle;rounded=0;orthogonalLoop=1;jettySize=auto;html=1;entryX=0;entryY=0.25;entryDx=0;entryDy=0;exitX=1;exitY=0.25;exitDx=0;exitDy=0;" parent="WIyWlLk6GJQsqaUBKTNV-1" source="b7edEHTEQrsLhUJaDIO4-122" target="b7edEHTEQrsLhUJaDIO4-141" edge="1">
          <mxGeometry relative="1" as="geometry" />
        </mxCell>
        <mxCell id="b7edEHTEQrsLhUJaDIO4-122" value="RandomLottoNumbers" style="swimlane;fontStyle=1;align=center;verticalAlign=top;childLayout=stackLayout;horizontal=1;startSize=26;horizontalStack=0;resizeParent=1;resizeParentMax=0;resizeLast=0;collapsible=1;marginBottom=0;whiteSpace=wrap;html=1;" parent="WIyWlLk6GJQsqaUBKTNV-1" vertex="1">
          <mxGeometry x="2840" y="72" width="160" height="60" as="geometry" />
        </mxCell>
        <mxCell id="b7edEHTEQrsLhUJaDIO4-124" value="" style="line;strokeWidth=1;fillColor=none;align=left;verticalAlign=middle;spacingTop=-1;spacingLeft=3;spacingRight=3;rotatable=0;labelPosition=right;points=[];portConstraint=eastwest;strokeColor=inherit;" parent="b7edEHTEQrsLhUJaDIO4-122" vertex="1">
          <mxGeometry y="26" width="160" height="8" as="geometry" />
        </mxCell>
        <mxCell id="b7edEHTEQrsLhUJaDIO4-125" value="+ generate(): LottoNumbers" style="text;strokeColor=none;fillColor=none;align=left;verticalAlign=top;spacingLeft=4;spacingRight=4;overflow=hidden;rotatable=0;points=[[0,0.5],[1,0.5]];portConstraint=eastwest;whiteSpace=wrap;html=1;" parent="b7edEHTEQrsLhUJaDIO4-122" vertex="1">
          <mxGeometry y="34" width="160" height="26" as="geometry" />
        </mxCell>
        <mxCell id="b7edEHTEQrsLhUJaDIO4-130" value="&lt;b&gt;LottoStatus&lt;/b&gt;" style="swimlane;fontStyle=0;childLayout=stackLayout;horizontal=1;startSize=26;fillColor=none;horizontalStack=0;resizeParent=1;resizeParentMax=0;resizeLast=0;collapsible=1;marginBottom=0;whiteSpace=wrap;html=1;" parent="WIyWlLk6GJQsqaUBKTNV-1" vertex="1">
          <mxGeometry x="3300" y="-72" width="140" height="104" as="geometry" />
        </mxCell>
        <mxCell id="b7edEHTEQrsLhUJaDIO4-131" value="Issued" style="text;strokeColor=none;fillColor=none;align=left;verticalAlign=top;spacingLeft=4;spacingRight=4;overflow=hidden;rotatable=0;points=[[0,0.5],[1,0.5]];portConstraint=eastwest;whiteSpace=wrap;html=1;" parent="b7edEHTEQrsLhUJaDIO4-130" vertex="1">
          <mxGeometry y="26" width="140" height="26" as="geometry" />
        </mxCell>
        <mxCell id="b7edEHTEQrsLhUJaDIO4-132" value="Won" style="text;strokeColor=none;fillColor=none;align=left;verticalAlign=top;spacingLeft=4;spacingRight=4;overflow=hidden;rotatable=0;points=[[0,0.5],[1,0.5]];portConstraint=eastwest;whiteSpace=wrap;html=1;" parent="b7edEHTEQrsLhUJaDIO4-130" vertex="1">
          <mxGeometry y="52" width="140" height="26" as="geometry" />
        </mxCell>
        <mxCell id="b7edEHTEQrsLhUJaDIO4-133" value="Lost" style="text;strokeColor=none;fillColor=none;align=left;verticalAlign=top;spacingLeft=4;spacingRight=4;overflow=hidden;rotatable=0;points=[[0,0.5],[1,0.5]];portConstraint=eastwest;whiteSpace=wrap;html=1;" parent="b7edEHTEQrsLhUJaDIO4-130" vertex="1">
          <mxGeometry y="78" width="140" height="26" as="geometry" />
        </mxCell>
        <mxCell id="b7edEHTEQrsLhUJaDIO4-141" value="LottoNumbers" style="swimlane;fontStyle=1;align=center;verticalAlign=top;childLayout=stackLayout;horizontal=1;startSize=26;horizontalStack=0;resizeParent=1;resizeParentMax=0;resizeLast=0;collapsible=1;marginBottom=0;whiteSpace=wrap;html=1;" parent="WIyWlLk6GJQsqaUBKTNV-1" vertex="1">
          <mxGeometry x="3310" y="73" width="120" height="58" as="geometry" />
        </mxCell>
        <mxCell id="b7edEHTEQrsLhUJaDIO4-142" value="+ value: List&amp;lt;Int&amp;gt;" style="text;strokeColor=none;fillColor=none;align=left;verticalAlign=top;spacingLeft=4;spacingRight=4;overflow=hidden;rotatable=0;points=[[0,0.5],[1,0.5]];portConstraint=eastwest;whiteSpace=wrap;html=1;" parent="b7edEHTEQrsLhUJaDIO4-141" vertex="1">
          <mxGeometry y="26" width="120" height="24" as="geometry" />
        </mxCell>
        <mxCell id="b7edEHTEQrsLhUJaDIO4-143" value="" style="line;strokeWidth=1;fillColor=none;align=left;verticalAlign=middle;spacingTop=-1;spacingLeft=3;spacingRight=3;rotatable=0;labelPosition=right;points=[];portConstraint=eastwest;strokeColor=inherit;" parent="b7edEHTEQrsLhUJaDIO4-141" vertex="1">
          <mxGeometry y="50" width="120" height="8" as="geometry" />
        </mxCell>
        <mxCell id="Gozaz2q-YdRfWmAjp8rj-0" value="Price" style="swimlane;fontStyle=1;align=center;verticalAlign=top;childLayout=stackLayout;horizontal=1;startSize=26;horizontalStack=0;resizeParent=1;resizeParentMax=0;resizeLast=0;collapsible=1;marginBottom=0;whiteSpace=wrap;html=1;" parent="WIyWlLk6GJQsqaUBKTNV-1" vertex="1">
          <mxGeometry x="2960" y="500" width="160" height="60" as="geometry" />
        </mxCell>
        <mxCell id="Gozaz2q-YdRfWmAjp8rj-1" value="+ value: Long" style="text;strokeColor=none;fillColor=none;align=left;verticalAlign=top;spacingLeft=4;spacingRight=4;overflow=hidden;rotatable=0;points=[[0,0.5],[1,0.5]];portConstraint=eastwest;whiteSpace=wrap;html=1;" parent="Gozaz2q-YdRfWmAjp8rj-0" vertex="1">
          <mxGeometry y="26" width="160" height="26" as="geometry" />
        </mxCell>
        <mxCell id="Gozaz2q-YdRfWmAjp8rj-2" value="" style="line;strokeWidth=1;fillColor=none;align=left;verticalAlign=middle;spacingTop=-1;spacingLeft=3;spacingRight=3;rotatable=0;labelPosition=right;points=[];portConstraint=eastwest;strokeColor=inherit;" parent="Gozaz2q-YdRfWmAjp8rj-0" vertex="1">
          <mxGeometry y="52" width="160" height="8" as="geometry" />
        </mxCell>
        <mxCell id="7T0WNnkGZVwz43J-CaNy-0" value="" style="rounded=1;whiteSpace=wrap;html=1;" parent="WIyWlLk6GJQsqaUBKTNV-1" vertex="1">
          <mxGeometry x="2500" y="220" width="1000" height="190" as="geometry" />
        </mxCell>
        <mxCell id="7T0WNnkGZVwz43J-CaNy-15" style="edgeStyle=orthogonalEdgeStyle;rounded=0;orthogonalLoop=1;jettySize=auto;html=1;entryX=0;entryY=0.25;entryDx=0;entryDy=0;exitX=1;exitY=0.25;exitDx=0;exitDy=0;" parent="WIyWlLk6GJQsqaUBKTNV-1" source="7T0WNnkGZVwz43J-CaNy-2" target="7T0WNnkGZVwz43J-CaNy-11" edge="1">
          <mxGeometry relative="1" as="geometry" />
        </mxCell>
        <mxCell id="7T0WNnkGZVwz43J-CaNy-2" value="LottoMatcher" style="swimlane;fontStyle=1;align=center;verticalAlign=top;childLayout=stackLayout;horizontal=1;startSize=26;horizontalStack=0;resizeParent=1;resizeParentMax=0;resizeLast=0;collapsible=1;marginBottom=0;whiteSpace=wrap;html=1;" parent="WIyWlLk6GJQsqaUBKTNV-1" vertex="1">
          <mxGeometry x="2540" y="255" width="240" height="60" as="geometry" />
        </mxCell>
        <mxCell id="7T0WNnkGZVwz43J-CaNy-3" value="" style="line;strokeWidth=1;fillColor=none;align=left;verticalAlign=middle;spacingTop=-1;spacingLeft=3;spacingRight=3;rotatable=0;labelPosition=right;points=[];portConstraint=eastwest;strokeColor=inherit;" parent="7T0WNnkGZVwz43J-CaNy-2" vertex="1">
          <mxGeometry y="26" width="240" height="8" as="geometry" />
        </mxCell>
        <mxCell id="7T0WNnkGZVwz43J-CaNy-4" value="+ matchBy(Lottos, LottoNumbers): Lottos" style="text;strokeColor=none;fillColor=none;align=left;verticalAlign=top;spacingLeft=4;spacingRight=4;overflow=hidden;rotatable=0;points=[[0,0.5],[1,0.5]];portConstraint=eastwest;whiteSpace=wrap;html=1;" parent="7T0WNnkGZVwz43J-CaNy-2" vertex="1">
          <mxGeometry y="34" width="240" height="26" as="geometry" />
        </mxCell>
        <mxCell id="7T0WNnkGZVwz43J-CaNy-11" value="Lottos" style="swimlane;fontStyle=1;align=center;verticalAlign=top;childLayout=stackLayout;horizontal=1;startSize=26;horizontalStack=0;resizeParent=1;resizeParentMax=0;resizeLast=0;collapsible=1;marginBottom=0;whiteSpace=wrap;html=1;" parent="WIyWlLk6GJQsqaUBKTNV-1" vertex="1">
          <mxGeometry x="2840" y="249" width="160" height="86" as="geometry" />
        </mxCell>
        <mxCell id="7T0WNnkGZVwz43J-CaNy-12" value="+ lottos: List&amp;lt;Lotto&amp;gt;" style="text;strokeColor=none;fillColor=none;align=left;verticalAlign=top;spacingLeft=4;spacingRight=4;overflow=hidden;rotatable=0;points=[[0,0.5],[1,0.5]];portConstraint=eastwest;whiteSpace=wrap;html=1;" parent="7T0WNnkGZVwz43J-CaNy-11" vertex="1">
          <mxGeometry y="26" width="160" height="26" as="geometry" />
        </mxCell>
        <mxCell id="7T0WNnkGZVwz43J-CaNy-13" value="" style="line;strokeWidth=1;fillColor=none;align=left;verticalAlign=middle;spacingTop=-1;spacingLeft=3;spacingRight=3;rotatable=0;labelPosition=right;points=[];portConstraint=eastwest;strokeColor=inherit;" parent="7T0WNnkGZVwz43J-CaNy-11" vertex="1">
          <mxGeometry y="52" width="160" height="8" as="geometry" />
        </mxCell>
        <mxCell id="7T0WNnkGZVwz43J-CaNy-14" value="+ matchBy(LottoNumbers)" style="text;strokeColor=none;fillColor=none;align=left;verticalAlign=top;spacingLeft=4;spacingRight=4;overflow=hidden;rotatable=0;points=[[0,0.5],[1,0.5]];portConstraint=eastwest;whiteSpace=wrap;html=1;" parent="7T0WNnkGZVwz43J-CaNy-11" vertex="1">
          <mxGeometry y="60" width="160" height="26" as="geometry" />
        </mxCell>
        <mxCell id="7T0WNnkGZVwz43J-CaNy-16" value="Lotto" style="swimlane;fontStyle=1;align=center;verticalAlign=top;childLayout=stackLayout;horizontal=1;startSize=26;horizontalStack=0;resizeParent=1;resizeParentMax=0;resizeLast=0;collapsible=1;marginBottom=0;whiteSpace=wrap;html=1;" parent="WIyWlLk6GJQsqaUBKTNV-1" vertex="1">
          <mxGeometry x="3070" y="250" width="160" height="114" as="geometry" />
        </mxCell>
        <mxCell id="7T0WNnkGZVwz43J-CaNy-17" value="+ status: LottoStatus&lt;div&gt;+ numbers: LottoNumbers&lt;/div&gt;&lt;div&gt;+ rank: Rank&lt;/div&gt;" style="text;strokeColor=none;fillColor=none;align=left;verticalAlign=top;spacingLeft=4;spacingRight=4;overflow=hidden;rotatable=0;points=[[0,0.5],[1,0.5]];portConstraint=eastwest;whiteSpace=wrap;html=1;" parent="7T0WNnkGZVwz43J-CaNy-16" vertex="1">
          <mxGeometry y="26" width="160" height="54" as="geometry" />
        </mxCell>
        <mxCell id="7T0WNnkGZVwz43J-CaNy-18" value="" style="line;strokeWidth=1;fillColor=none;align=left;verticalAlign=middle;spacingTop=-1;spacingLeft=3;spacingRight=3;rotatable=0;labelPosition=right;points=[];portConstraint=eastwest;strokeColor=inherit;" parent="7T0WNnkGZVwz43J-CaNy-16" vertex="1">
          <mxGeometry y="80" width="160" height="8" as="geometry" />
        </mxCell>
        <mxCell id="7T0WNnkGZVwz43J-CaNy-19" value="+ matchBy(LottoNumbers)" style="text;strokeColor=none;fillColor=none;align=left;verticalAlign=top;spacingLeft=4;spacingRight=4;overflow=hidden;rotatable=0;points=[[0,0.5],[1,0.5]];portConstraint=eastwest;whiteSpace=wrap;html=1;" parent="7T0WNnkGZVwz43J-CaNy-16" vertex="1">
          <mxGeometry y="88" width="160" height="26" as="geometry" />
        </mxCell>
        <mxCell id="7T0WNnkGZVwz43J-CaNy-20" value="&lt;b&gt;LottoStatus&lt;/b&gt;" style="swimlane;fontStyle=0;childLayout=stackLayout;horizontal=1;startSize=26;fillColor=none;horizontalStack=0;resizeParent=1;resizeParentMax=0;resizeLast=0;collapsible=1;marginBottom=0;whiteSpace=wrap;html=1;" parent="WIyWlLk6GJQsqaUBKTNV-1" vertex="1">
          <mxGeometry x="3308" y="251" width="140" height="104" as="geometry" />
        </mxCell>
        <mxCell id="7T0WNnkGZVwz43J-CaNy-21" value="Issued" style="text;strokeColor=none;fillColor=none;align=left;verticalAlign=top;spacingLeft=4;spacingRight=4;overflow=hidden;rotatable=0;points=[[0,0.5],[1,0.5]];portConstraint=eastwest;whiteSpace=wrap;html=1;" parent="7T0WNnkGZVwz43J-CaNy-20" vertex="1">
          <mxGeometry y="26" width="140" height="26" as="geometry" />
        </mxCell>
        <mxCell id="7T0WNnkGZVwz43J-CaNy-22" value="Won" style="text;strokeColor=none;fillColor=none;align=left;verticalAlign=top;spacingLeft=4;spacingRight=4;overflow=hidden;rotatable=0;points=[[0,0.5],[1,0.5]];portConstraint=eastwest;whiteSpace=wrap;html=1;" parent="7T0WNnkGZVwz43J-CaNy-20" vertex="1">
          <mxGeometry y="52" width="140" height="26" as="geometry" />
        </mxCell>
        <mxCell id="7T0WNnkGZVwz43J-CaNy-23" value="Lost" style="text;strokeColor=none;fillColor=none;align=left;verticalAlign=top;spacingLeft=4;spacingRight=4;overflow=hidden;rotatable=0;points=[[0,0.5],[1,0.5]];portConstraint=eastwest;whiteSpace=wrap;html=1;" parent="7T0WNnkGZVwz43J-CaNy-20" vertex="1">
          <mxGeometry y="78" width="140" height="26" as="geometry" />
        </mxCell>
        <mxCell id="7T0WNnkGZVwz43J-CaNy-25" style="edgeStyle=orthogonalEdgeStyle;rounded=0;orthogonalLoop=1;jettySize=auto;html=1;entryX=-0.019;entryY=0.147;entryDx=0;entryDy=0;entryPerimeter=0;exitX=0.979;exitY=0.135;exitDx=0;exitDy=0;exitPerimeter=0;" parent="WIyWlLk6GJQsqaUBKTNV-1" source="7T0WNnkGZVwz43J-CaNy-16" target="7T0WNnkGZVwz43J-CaNy-20" edge="1">
          <mxGeometry relative="1" as="geometry" />
        </mxCell>
        <mxCell id="7T0WNnkGZVwz43J-CaNy-27" style="edgeStyle=orthogonalEdgeStyle;rounded=0;orthogonalLoop=1;jettySize=auto;html=1;entryX=-0.012;entryY=0.123;entryDx=0;entryDy=0;entryPerimeter=0;exitX=1;exitY=0.163;exitDx=0;exitDy=0;exitPerimeter=0;" parent="WIyWlLk6GJQsqaUBKTNV-1" source="7T0WNnkGZVwz43J-CaNy-11" target="7T0WNnkGZVwz43J-CaNy-16" edge="1">
          <mxGeometry relative="1" as="geometry" />
        </mxCell>
        <mxCell id="l_rRGWIlLusPrg-PlriM-0" value="" style="rounded=1;whiteSpace=wrap;html=1;movable=1;resizable=1;rotatable=1;deletable=1;editable=1;locked=0;connectable=1;" vertex="1" parent="WIyWlLk6GJQsqaUBKTNV-1">
          <mxGeometry x="2510" y="710" width="980" height="350" as="geometry" />
        </mxCell>
        <mxCell id="l_rRGWIlLusPrg-PlriM-18" style="edgeStyle=orthogonalEdgeStyle;rounded=0;orthogonalLoop=1;jettySize=auto;html=1;entryX=0;entryY=0.132;entryDx=0;entryDy=0;entryPerimeter=0;" edge="1" parent="WIyWlLk6GJQsqaUBKTNV-1" source="l_rRGWIlLusPrg-PlriM-7" target="l_rRGWIlLusPrg-PlriM-34">
          <mxGeometry relative="1" as="geometry">
            <mxPoint x="2850" y="738.5" as="targetPoint" />
          </mxGeometry>
        </mxCell>
        <mxCell id="l_rRGWIlLusPrg-PlriM-23" style="edgeStyle=orthogonalEdgeStyle;rounded=0;orthogonalLoop=1;jettySize=auto;html=1;entryX=0;entryY=0.25;entryDx=0;entryDy=0;" edge="1" parent="WIyWlLk6GJQsqaUBKTNV-1" source="l_rRGWIlLusPrg-PlriM-7" target="l_rRGWIlLusPrg-PlriM-19">
          <mxGeometry relative="1" as="geometry" />
        </mxCell>
        <mxCell id="l_rRGWIlLusPrg-PlriM-7" value="StatisticsCalculator" style="swimlane;fontStyle=1;align=center;verticalAlign=top;childLayout=stackLayout;horizontal=1;startSize=26;horizontalStack=0;resizeParent=1;resizeParentMax=0;resizeLast=0;collapsible=1;marginBottom=0;whiteSpace=wrap;html=1;" vertex="1" parent="WIyWlLk6GJQsqaUBKTNV-1">
          <mxGeometry x="2540" y="780" width="220" height="60" as="geometry" />
        </mxCell>
        <mxCell id="l_rRGWIlLusPrg-PlriM-8" value="" style="line;strokeWidth=1;fillColor=none;align=left;verticalAlign=middle;spacingTop=-1;spacingLeft=3;spacingRight=3;rotatable=0;labelPosition=right;points=[];portConstraint=eastwest;strokeColor=inherit;" vertex="1" parent="l_rRGWIlLusPrg-PlriM-7">
          <mxGeometry y="26" width="220" height="8" as="geometry" />
        </mxCell>
        <mxCell id="l_rRGWIlLusPrg-PlriM-9" value="+ execute(Price, Lottos): Statistics" style="text;strokeColor=none;fillColor=none;align=left;verticalAlign=top;spacingLeft=4;spacingRight=4;overflow=hidden;rotatable=0;points=[[0,0.5],[1,0.5]];portConstraint=eastwest;whiteSpace=wrap;html=1;" vertex="1" parent="l_rRGWIlLusPrg-PlriM-7">
          <mxGeometry y="34" width="220" height="26" as="geometry" />
        </mxCell>
        <mxCell id="l_rRGWIlLusPrg-PlriM-19" value="Lottos" style="swimlane;fontStyle=1;align=center;verticalAlign=top;childLayout=stackLayout;horizontal=1;startSize=26;horizontalStack=0;resizeParent=1;resizeParentMax=0;resizeLast=0;collapsible=1;marginBottom=0;whiteSpace=wrap;html=1;" vertex="1" parent="WIyWlLk6GJQsqaUBKTNV-1">
          <mxGeometry x="2850" y="860" width="160" height="86" as="geometry" />
        </mxCell>
        <mxCell id="l_rRGWIlLusPrg-PlriM-20" value="+ lottos: List&amp;lt;Lotto&amp;gt;" style="text;strokeColor=none;fillColor=none;align=left;verticalAlign=top;spacingLeft=4;spacingRight=4;overflow=hidden;rotatable=0;points=[[0,0.5],[1,0.5]];portConstraint=eastwest;whiteSpace=wrap;html=1;" vertex="1" parent="l_rRGWIlLusPrg-PlriM-19">
          <mxGeometry y="26" width="160" height="26" as="geometry" />
        </mxCell>
        <mxCell id="l_rRGWIlLusPrg-PlriM-21" value="" style="line;strokeWidth=1;fillColor=none;align=left;verticalAlign=middle;spacingTop=-1;spacingLeft=3;spacingRight=3;rotatable=0;labelPosition=right;points=[];portConstraint=eastwest;strokeColor=inherit;" vertex="1" parent="l_rRGWIlLusPrg-PlriM-19">
          <mxGeometry y="52" width="160" height="8" as="geometry" />
        </mxCell>
        <mxCell id="l_rRGWIlLusPrg-PlriM-22" value="+ totalRevenue(): Price" style="text;strokeColor=none;fillColor=none;align=left;verticalAlign=top;spacingLeft=4;spacingRight=4;overflow=hidden;rotatable=0;points=[[0,0.5],[1,0.5]];portConstraint=eastwest;whiteSpace=wrap;html=1;" vertex="1" parent="l_rRGWIlLusPrg-PlriM-19">
          <mxGeometry y="60" width="160" height="26" as="geometry" />
        </mxCell>
        <mxCell id="l_rRGWIlLusPrg-PlriM-24" value="Rank" style="swimlane;fontStyle=1;align=center;verticalAlign=top;childLayout=stackLayout;horizontal=1;startSize=26;horizontalStack=0;resizeParent=1;resizeParentMax=0;resizeLast=0;collapsible=1;marginBottom=0;whiteSpace=wrap;html=1;" vertex="1" parent="WIyWlLk6GJQsqaUBKTNV-1">
          <mxGeometry x="3290" y="857" width="190" height="148" as="geometry" />
        </mxCell>
        <mxCell id="l_rRGWIlLusPrg-PlriM-25" value="+ FIRST(6, 2_000_000_000)&lt;div&gt;+ SECOND(5, 30_000_000)&lt;/div&gt;&lt;div&gt;+ THIRD(5, 1_500_000)&lt;/div&gt;&lt;div&gt;+&amp;nbsp;FOURTH(4, 50_000)&lt;/div&gt;&lt;div&gt;+&amp;nbsp;FIFTH(3, 5_000)&lt;/div&gt;&lt;div&gt;+&amp;nbsp;MISS(0, 0)&lt;/div&gt;" style="text;strokeColor=none;fillColor=none;align=left;verticalAlign=top;spacingLeft=4;spacingRight=4;overflow=hidden;rotatable=0;points=[[0,0.5],[1,0.5]];portConstraint=eastwest;whiteSpace=wrap;html=1;" vertex="1" parent="l_rRGWIlLusPrg-PlriM-24">
          <mxGeometry y="26" width="190" height="114" as="geometry" />
        </mxCell>
        <mxCell id="l_rRGWIlLusPrg-PlriM-26" value="" style="line;strokeWidth=1;fillColor=none;align=left;verticalAlign=middle;spacingTop=-1;spacingLeft=3;spacingRight=3;rotatable=0;labelPosition=right;points=[];portConstraint=eastwest;strokeColor=inherit;" vertex="1" parent="l_rRGWIlLusPrg-PlriM-24">
          <mxGeometry y="140" width="190" height="8" as="geometry" />
        </mxCell>
        <mxCell id="l_rRGWIlLusPrg-PlriM-28" value="Lotto" style="swimlane;fontStyle=1;align=center;verticalAlign=top;childLayout=stackLayout;horizontal=1;startSize=26;horizontalStack=0;resizeParent=1;resizeParentMax=0;resizeLast=0;collapsible=1;marginBottom=0;whiteSpace=wrap;html=1;" vertex="1" parent="WIyWlLk6GJQsqaUBKTNV-1">
          <mxGeometry x="3080" y="859" width="160" height="114" as="geometry" />
        </mxCell>
        <mxCell id="l_rRGWIlLusPrg-PlriM-29" value="+ status: LottoStatus&lt;div&gt;+ numbers: LottoNumbers&lt;/div&gt;&lt;div&gt;+ rank: Rank&lt;/div&gt;" style="text;strokeColor=none;fillColor=none;align=left;verticalAlign=top;spacingLeft=4;spacingRight=4;overflow=hidden;rotatable=0;points=[[0,0.5],[1,0.5]];portConstraint=eastwest;whiteSpace=wrap;html=1;" vertex="1" parent="l_rRGWIlLusPrg-PlriM-28">
          <mxGeometry y="26" width="160" height="54" as="geometry" />
        </mxCell>
        <mxCell id="l_rRGWIlLusPrg-PlriM-30" value="" style="line;strokeWidth=1;fillColor=none;align=left;verticalAlign=middle;spacingTop=-1;spacingLeft=3;spacingRight=3;rotatable=0;labelPosition=right;points=[];portConstraint=eastwest;strokeColor=inherit;" vertex="1" parent="l_rRGWIlLusPrg-PlriM-28">
          <mxGeometry y="80" width="160" height="8" as="geometry" />
        </mxCell>
        <mxCell id="l_rRGWIlLusPrg-PlriM-31" value="+ getRevenue(): Price" style="text;strokeColor=none;fillColor=none;align=left;verticalAlign=top;spacingLeft=4;spacingRight=4;overflow=hidden;rotatable=0;points=[[0,0.5],[1,0.5]];portConstraint=eastwest;whiteSpace=wrap;html=1;" vertex="1" parent="l_rRGWIlLusPrg-PlriM-28">
          <mxGeometry y="88" width="160" height="26" as="geometry" />
        </mxCell>
        <mxCell id="l_rRGWIlLusPrg-PlriM-32" style="edgeStyle=orthogonalEdgeStyle;rounded=0;orthogonalLoop=1;jettySize=auto;html=1;entryX=0.021;entryY=0.111;entryDx=0;entryDy=0;entryPerimeter=0;exitX=1.01;exitY=0.132;exitDx=0;exitDy=0;exitPerimeter=0;" edge="1" parent="WIyWlLk6GJQsqaUBKTNV-1" source="l_rRGWIlLusPrg-PlriM-19" target="l_rRGWIlLusPrg-PlriM-28">
          <mxGeometry relative="1" as="geometry" />
        </mxCell>
        <mxCell id="l_rRGWIlLusPrg-PlriM-33" style="edgeStyle=orthogonalEdgeStyle;rounded=0;orthogonalLoop=1;jettySize=auto;html=1;entryX=-0.01;entryY=0.096;entryDx=0;entryDy=0;entryPerimeter=0;exitX=0.99;exitY=0.096;exitDx=0;exitDy=0;exitPerimeter=0;" edge="1" parent="WIyWlLk6GJQsqaUBKTNV-1" source="l_rRGWIlLusPrg-PlriM-28" target="l_rRGWIlLusPrg-PlriM-24">
          <mxGeometry relative="1" as="geometry" />
        </mxCell>
        <mxCell id="l_rRGWIlLusPrg-PlriM-34" value="Statistics" style="swimlane;fontStyle=1;align=center;verticalAlign=top;childLayout=stackLayout;horizontal=1;startSize=26;horizontalStack=0;resizeParent=1;resizeParentMax=0;resizeLast=0;collapsible=1;marginBottom=0;whiteSpace=wrap;html=1;" vertex="1" parent="WIyWlLk6GJQsqaUBKTNV-1">
          <mxGeometry x="2850" y="720" width="160" height="104" as="geometry" />
        </mxCell>
        <mxCell id="l_rRGWIlLusPrg-PlriM-35" value="+ price: Price&lt;div&gt;+ totalRevenue: Price&lt;/div&gt;" style="text;strokeColor=none;fillColor=none;align=left;verticalAlign=top;spacingLeft=4;spacingRight=4;overflow=hidden;rotatable=0;points=[[0,0.5],[1,0.5]];portConstraint=eastwest;whiteSpace=wrap;html=1;" vertex="1" parent="l_rRGWIlLusPrg-PlriM-34">
          <mxGeometry y="26" width="160" height="44" as="geometry" />
        </mxCell>
        <mxCell id="l_rRGWIlLusPrg-PlriM-36" value="" style="line;strokeWidth=1;fillColor=none;align=left;verticalAlign=middle;spacingTop=-1;spacingLeft=3;spacingRight=3;rotatable=0;labelPosition=right;points=[];portConstraint=eastwest;strokeColor=inherit;" vertex="1" parent="l_rRGWIlLusPrg-PlriM-34">
          <mxGeometry y="70" width="160" height="8" as="geometry" />
        </mxCell>
        <mxCell id="l_rRGWIlLusPrg-PlriM-37" value="+ revenueRate(): Double" style="text;strokeColor=none;fillColor=none;align=left;verticalAlign=top;spacingLeft=4;spacingRight=4;overflow=hidden;rotatable=0;points=[[0,0.5],[1,0.5]];portConstraint=eastwest;whiteSpace=wrap;html=1;" vertex="1" parent="l_rRGWIlLusPrg-PlriM-34">
          <mxGeometry y="78" width="160" height="26" as="geometry" />
        </mxCell>
      </root>
    </mxGraphModel>
  </diagram>
</mxfile>
